# xmcd
#
# Track frame offsets:
#	150
#	19380
#	34494
#	50029
#	66336
#	85174
#	99972
#	117932
#	135056
#	149864
#	165430
#	179423
#	193965
#	212662
#	229635
#	244892
#
# Disc length: 3490 seconds
#
# Revision: 1
# Processed by: cddbd v1.5.2PL0 Copyright (c) Steve Scherf et al.
# Submitted via: audiograbber 1.83.01
#
DISCID=ea0da010
DTITLE=Morgan Evans - Morgan Evans
DYEAR=2014
DGENRE=Country
TTITLE0=Like A Tornado
TTITLE1=I Wanna Go
TTITLE2=Love You Home
TTITLE3=One Eye For An Eye
TTITLE4=Childhood Heart
TTITLE5=All In This Together
TTITLE6=Make You Feel Like a Woman
TTITLE7=The Best of Me
TTITLE8=Another Goodbye Kiss
TTITLE9=Best I Never Had
TTITLE10=Wide Open Road
TTITLE11=The Cape
TTITLE12=Live Each Day
TTITLE13=Big Skies
TTITLE14=While We're Young
TTITLE15=Carry On
EXTD=
EXTT0=
EXTT1=
EXTT2=
EXTT3=
EXTT4=
EXTT5=
EXTT6=
EXTT7=
EXTT8=
EXTT9=
EXTT10=
EXTT11=
EXTT12=
EXTT13=
EXTT14=
EXTT15=
PLAYORDER=
